<?xml version="1.0" encoding="UTF-8"?>
<svg xmlns="http://www.w3.org/2000/svg" viewBox="0 0 1612.63 1537.75">
  <defs>
    <style>
      .cls-1 {
        fill: #fff;
      }

      .cls-2 {
        fill: none;
      }

      .cls-3 {
        fill: #005edf;
      }
    </style>
  </defs>
  <g id="Layer_2" data-name="Layer 2">
    <path class="cls-3" d="M322.74,541.13c-8.07-.79-70.58-5.9-114.21,40.35-49.77,52.76-51.42,144.02-17.62,163.9,53.63,31.56,146.02-16.72,220.27-119.64"/>
    <path class="cls-1" d="M319.02,551.13c-6.05-.59-52.94-4.42-85.67,30.27-37.33,39.58-38.57,108.04-13.22,122.95,40.23,23.67,109.54-12.54,165.24-89.75"/>
  </g>
  <g id="Layer_1" data-name="Layer 1">
    <g id="Layer_2-2" data-name="Layer 2">
      <path class="cls-3" d="M1601.44,744.66c-13.9-65.7-21.3-258.3-130.6-190.7-49.6,42.2-126.6,92.4-219.7,102-59.1,6.1-130.1,6.8-203.9,1.8-46-3.1-74.3-51.5-54.5-93.2C1218.54,49.56,430.04-251.44,252.74,277.36c-20.8,89.8-132.1,124.4-202,150.1-54.9,20-68.7,92.1-24.3,130.2,51.5,44.2,147,58.5,242.3,60,56.1-.9,93.1,69.8,55.4,113.3-709.5,891.6,1461.9,1240,1277.3,13.7h0Z"/>
    </g>
    <g id="Layer_3" data-name="Layer 3">
      <g>
        <ellipse class="cls-2" cx="883.55" cy="926.05" rx="722.99" ry="525.52"/>
        <path class="cls-1" d="M363.78,1292.59l-54.52-36.42,158.83-237.77c35.58,22.04,57.84,36.05,66.79,42.03,35.79,23.91,57.39,53.02,64.8,87.33,7.41,34.31-.1,68.25-22.52,101.81-57.14,85.54-128.26,99.88-213.38,43.02h0ZM487.07,1084.4l-108.49,162.41c6.61,5.36,14,10.76,22.17,16.22,22.03,14.72,44.45,18.5,67.27,11.35,22.81-7.15,43.51-24.64,62.1-52.47,33.99-50.89,26.55-92.66-22.32-125.31-4.7-3.14-11.61-7.2-20.72-12.2h0Z"/>
        <path class="cls-1" d="M609.26,1412.84l73.7-276.48,50.69,13.51-73.7,276.48-50.69-13.51Z"/>
        <path class="cls-1" d="M996.96,1187.39l-21.51,41.08c-6.25-5.26-15.86-10.46-28.83-15.58-12.97-5.12-24.1-7.63-33.38-7.52-29.05.34-51.87,10.15-68.46,29.42s-24.69,44.92-24.31,76.95c.36,30.47,8.88,54.72,25.57,72.75,16.69,18.04,39.22,26.88,67.6,26.55,18.69-.22,34.04-5.35,46.02-15.39l-.66-56.25-40.95.48-.51-43.36,93.41-1.1,1.51,128.12c-12.39,10.04-28.41,17.95-48.04,23.71-19.64,5.76-39.21,8.76-58.71,8.99-42.37.5-76.11-12.55-101.25-39.14-25.13-26.59-37.96-61.96-38.48-106.1-.52-44.14,12.57-80.16,39.28-108.09,26.71-27.92,62.92-42.15,108.65-42.69,32.41-.38,60.09,8.67,83.04,27.15v.02Z"/>
        <path class="cls-1" d="M1121.2,1422.92l-78.13-275.26,50.46-14.32,78.13,275.26-50.46,14.32Z"/>
        <path class="cls-1" d="M1262.5,1096.48l135.93,199.02-43.32,29.58-135.93-199.02-77.64,53.03-25.45-37.26,202.09-138.03,25.45,37.26-81.14,55.42h.01Z"/>
      </g>
    </g>
  </g>
</svg>