<?xml version="1.0" encoding="UTF-8"?>
<svg id="Layer_1" xmlns="http://www.w3.org/2000/svg" version="1.1" xmlns:xlink="http://www.w3.org/1999/xlink" viewBox="0 0 72 72">
  <!-- Generator: Adobe Illustrator 29.8.3, SVG Export Plug-In . SVG Version: 2.1.1 Build 3)  -->
  <defs>
    <style>
      .st0, .st1 {
        fill: #fff;
      }

      .st2 {
        fill: #3963ae;
      }

      .st3 {
        fill: none;
      }

      .st4 {
        clip-path: url(#clippath-1);
      }

      .st5 {
        clip-path: url(#clippath);
      }

      .st1 {
        stroke: #3963ae;
        stroke-miterlimit: 10;
      }
    </style>
    <clipPath id="clippath">
      <circle class="st3" cx="36" cy="36" r="36"/>
    </clipPath>
    <clipPath id="clippath-1">
      <circle class="st3" cx="40.3" cy="36.5" r="36"/>
    </clipPath>
  </defs>
  <g id="Layer_2-2">
    <circle class="st2" cx="28.5" cy="24" r="2.7"/>
    <path class="st1" d="M25.8,31.9s0,4.1-6.4,4.4"/>
  </g>
  <g id="Layer_11" data-name="Layer_1">
    <circle class="st2" cx="36" cy="36" r="36"/>
    <path class="st2" d="M36,1.5c19,0,34.5,15.5,34.5,34.5s-15.5,34.5-34.5,34.5S1.5,55,1.5,36,17,1.5,36,1.5M36,0C16.1,0,0,16.1,0,36s16.1,36,36,36,36-16.1,36-36S55.9,0,36,0h0Z"/>
  </g>
  <g class="st5">
    <g class="st4">
      <g id="Layer_2-21" data-name="Layer_2-2">
        <path class="st0" d="M73.9,41.1c-.6-2.8-.9-11-5.3-8.1-2,1.8-5.1,3.9-8.9,4.3-2.4.3-5.3.3-8.3,0-1.9-.1-3-2.2-2.2-4C58.3,11.5,26.3-1.3,19.1,21.2c-.8,3.8-5.4,5.3-8.2,6.4-2.2.9-2.8,3.9-1,5.5,2.1,1.9,6,2.5,9.8,2.5.2,0,.4,0,.6,0,1.9.5,3,3.1,1.6,4.8-28.8,37.9,59.3,52.8,51.8.6h0Z"/>
        <circle class="st2" cx="28.5" cy="24" r="2.7"/>
        <path class="st1" d="M25.8,31.9s0,4.1-6.4,4.4"/>
      </g>
      <g id="Layer_3">
        <g>
          <path class="st3" d="M15,56.7c2.1,1.1,5.2,2.4,9.2,3.1,4.4.7,8,.4,10.4,0"/>
          <path class="st2" d="M22.5,53.4l-.8.7c0-.2-.2-.3-.5-.6-.2-.2-.4-.3-.6-.4-.6-.2-1.1-.2-1.6,0s-.9.7-1.1,1.4c-.2.6-.3,1.2,0,1.7s.6.9,1.1,1.1c.4.2.7.2,1.1,0l.5-1.2-.8-.3.4-.9,1.9.7-1,2.7c-.3.1-.7.2-1.2.1s-.9-.1-1.3-.3c-.9-.3-1.4-.9-1.7-1.6-.3-.8-.2-1.6.1-2.5s.9-1.6,1.7-1.9c.8-.4,1.6-.4,2.5,0,.7.2,1.1.7,1.5,1.2h0Z"/>
          <path class="st2" d="M22.3,59.3l1.4-6.3,1.1.2-1.4,6.3-1.1-.2Z"/>
          <path class="st2" d="M28.3,54.7l-.3,5.4h-1.1c0,0,.3-5.5.3-5.5h-2c0-.1,0-1.1,0-1.1l5.3.3v1c0,0-2.2-.1-2.2-.1Z"/>
        </g>
      </g>
    </g>
  </g>
  <path class="st0" d="M36,2c18.7,0,34,15.3,34,34s-15.3,34-34,34S2,54.7,2,36,17.3,2,36,2M36,0C16.1,0,0,16.1,0,36s16.1,36,36,36,36-16.1,36-36S55.9,0,36,0h0Z"/>
</svg>